<?xml version="1.0" encoding="iso-8859-1"?>
<!-- Generator: Adobe Illustrator 19.0.0, SVG Export Plug-In . SVG Version: 6.00 Build 0)  -->
<svg version="1.1" id="Layer_1" xmlns="http://www.w3.org/2000/svg" xmlns:xlink="http://www.w3.org/1999/xlink" x="0px" y="0px"
	 viewBox="0 0 512 512" style="enable-background:new 0 0 512 512;" xml:space="preserve">
<g transform="translate(1 1)">
	<g>
		<g>
			<path d="M511,253.72c0-11.491-6.963-20.833-17.067-24.224v-9.909c0-23.893-18.773-42.667-42.667-42.667H58.733
				c-23.893,0-42.667,18.773-42.667,42.667v9.909C5.963,232.887-1,242.229-1,253.72c0,11.535,7.018,20.906,17.185,24.263
				c0.423,14.104,2.078,27.912,4.871,41.317c0.026,0.326,0.065,0.653,0.13,0.98c19.627,92.16,92.16,164.693,184.32,184.32
				c0.156,0,0.277,0,0.387,0c15.862,3.348,32.287,5.12,49.107,5.12c16.82,0,33.245-1.772,49.107-5.12c0.109,0,0.231,0,0.386,0
				c92.16-19.627,164.693-92.16,184.32-184.32c0.064-0.321,0.103-0.647,0.129-0.975c2.794-13.406,4.449-27.216,4.872-41.322
				C503.982,274.626,511,265.255,511,253.72z M485.4,262.253h-51.2c-2.56,0-5.12-1.707-6.827-3.413
				c-1.398-1.398-1.647-3.371-1.693-5.446c0.025-0.842,0.135-1.639,0.339-2.376c1.342-3.051,5.183-5.832,9.034-5.832H485.4
				c5.12,0,8.533,3.413,8.533,8.533S490.52,262.253,485.4,262.253z M24.6,245.187h50.347c3.85,0,7.692,2.781,9.034,5.832
				c0.205,0.737,0.315,1.534,0.339,2.376c-0.046,2.075-0.295,4.048-1.693,5.446c-1.483,2.225-3.612,3.159-5.824,3.365
				c-0.017,0.002-0.032,0.005-0.049,0.006c-0.317,0.028-0.635,0.042-0.954,0.042H24.6c-5.12,0-8.533-3.413-8.533-8.533
				S19.48,245.187,24.6,245.187z M201.24,485.827c-79.36-19.627-141.653-81.92-161.28-161.28c9.387-1.707,17.92-2.56,27.307-2.56
				c75.093,0,136.533,61.44,136.533,136.533C203.8,467.053,202.947,476.44,201.24,485.827z M217.758,489.524
				c2.063-10.583,3.109-21.052,3.109-31.004c0-84.48-69.12-153.6-153.6-153.6c-10.014,0-20.552,1.06-31.202,3.149
				c-1.582-9.396-2.581-18.99-2.932-28.749H75.8c9.988,0,18.358-5.26,22.603-13.271c2.782-4.75,3.656-10.67,2.997-16.596
				c-0.357-1.664-0.894-3.271-1.564-4.817C96.296,234.83,87.081,228.12,75.8,228.12h-0.853H33.133v-8.533
				c0-14.507,11.093-25.6,25.6-25.6H75.8v17.067c0,5.12,3.413,8.533,8.533,8.533c5.12,0,8.533-3.413,8.533-8.533v-17.067h25.6
				v17.067c0,5.12,3.413,8.533,8.533,8.533s8.533-3.413,8.533-8.533v-17.067h25.6v17.067c0,5.12,3.413,8.533,8.533,8.533
				s8.533-3.413,8.533-8.533v-17.067h25.6v17.067c0,5.12,3.413,8.533,8.533,8.533c5.12,0,8.533-3.413,8.533-8.533v-17.067h25.6
				v17.067c0,5.12,3.413,8.533,8.533,8.533s8.533-3.413,8.533-8.533v-17.067h25.6v17.067c0,5.12,3.413,8.533,8.533,8.533
				s8.533-3.413,8.533-8.533v-17.067h25.6v17.067c0,5.12,3.413,8.533,8.533,8.533c5.12,0,8.533-3.413,8.533-8.533v-17.067h25.6
				v17.067c0,5.12,3.413,8.533,8.533,8.533s8.533-3.413,8.533-8.533v-17.067h25.6v17.067c0,5.12,3.413,8.533,8.533,8.533
				s8.533-3.413,8.533-8.533v-17.067h17.067c14.507,0,25.6,11.093,25.6,25.6v8.533h-41.813H434.2
				c-9.151,0-16.94,4.417-21.447,11.318c-2.157,2.972-3.633,6.374-4.153,10.015c-0.404,3.228-0.226,6.645,0.605,9.984
				c2.488,11.603,12.465,19.882,24.995,19.882h42.667c-0.351,9.759-1.35,19.353-2.932,28.749
				c-10.65-2.089-21.188-3.149-31.202-3.149c-84.48,0-153.6,69.12-153.6,153.6c0,9.952,1.045,20.421,3.109,31.004
				c-12.117,2.051-24.558,3.129-37.242,3.129C242.315,492.653,229.875,491.575,217.758,489.524z M306.2,458.52
				c0-75.093,61.44-136.533,136.533-136.533c9.387,0,17.92,0.853,27.307,2.56c-19.627,79.36-81.92,141.653-161.28,161.28
				C307.053,476.44,306.2,467.907,306.2,458.52z"/>
			<path d="M448.707,63.427l25.6-25.6V25.88l-25.6-25.6H436.76l-25.6,25.6v11.947l25.6,25.6H448.707z M442.733,18.2l13.653,13.653
				l-13.653,13.653L429.08,31.853L442.733,18.2z"/>
			<path d="M144.067,74.52c14.507,0,25.6,11.093,25.6,25.6c0,5.12,3.413,8.533,8.533,8.533s8.533-3.413,8.533-8.533
				c0-14.507,11.093-25.6,25.6-25.6c5.12,0,8.533-3.413,8.533-8.533s-3.413-8.533-8.533-8.533c-14.507,0-25.6-11.093-25.6-25.6
				c0-5.12-3.413-8.533-8.533-8.533s-8.533,3.413-8.533,8.533c0,14.507-11.093,25.6-25.6,25.6c-5.12,0-8.533,3.413-8.533,8.533
				S138.947,74.52,144.067,74.52z M178.2,57.453c2.56,3.413,5.12,5.973,8.533,8.533c-3.413,2.56-5.973,5.12-8.533,8.533
				c-2.56-3.413-5.12-5.973-8.533-8.533C173.08,63.427,175.64,60.867,178.2,57.453z"/>
			<path d="M331.8,117.187h8.533v8.533c0,5.12,3.413,8.533,8.533,8.533s8.533-3.413,8.533-8.533v-8.533h8.533
				c5.12,0,8.533-3.413,8.533-8.533s-3.413-8.533-8.533-8.533H357.4v-8.533c0-5.12-3.413-8.533-8.533-8.533
				s-8.533,3.413-8.533,8.533v8.533H331.8c-5.12,0-8.533,3.413-8.533,8.533S326.68,117.187,331.8,117.187z"/>
			<path d="M101.4,134.253c5.12,0,8.533-3.413,8.533-8.533s-3.413-8.533-8.533-8.533s-8.533,3.413-8.533,8.533
				S96.28,134.253,101.4,134.253z"/>
			<path d="M33.133,48.92c5.12,0,8.533-3.413,8.533-8.533s-3.413-8.533-8.533-8.533c-5.12,0-8.533,3.413-8.533,8.533
				S28.013,48.92,33.133,48.92z"/>
		</g>
	</g>
</g>
<g>
</g>
<g>
</g>
<g>
</g>
<g>
</g>
<g>
</g>
<g>
</g>
<g>
</g>
<g>
</g>
<g>
</g>
<g>
</g>
<g>
</g>
<g>
</g>
<g>
</g>
<g>
</g>
<g>
</g>
</svg>
