<svg width="0" height="0" class="hidden">
  <symbol xmlns="http://www.w3.org/2000/svg" viewBox="0 0 404.556 404.556" id="abc-block">
    <path d="M300.903 144.956l-53.28-136c-2.961-7.247-11.17-10.8-18.48-8l-136 53.28c-7.312 2.894-10.893 11.168-8 18.48l53.68 136c2.894 7.312 11.168 10.893 18.48 8l135.6-53.28c7.312-2.894 10.893-11.168 8-18.48zm-147.84 56.16l-52-132.32 132.32-52.08 52 132.4-132.32 52zm16.48 29.2H23.863c-7.865 0-14.24 6.375-14.24 14.24v145.76c0 7.865 6.375 14.24 14.24 14.24h145.68c7.865 0 14.24-6.375 14.24-14.24v-145.76c0-7.865-6.376-14.24-14.24-14.24zm-1.76 158.16H25.623v-142.16h142.16v142.16zm216.88-158.96l-140.8-37.44c-7.677-1.873-15.439 2.755-17.44 10.4l-37.44 140.8c-2.034 7.597 2.476 15.404 10.073 17.438l.007.002 140.8 37.44c7.597 2.034 15.404-2.476 17.438-10.073l.002-.007 37.12-141.12c2.057-7.503-2.289-15.269-9.76-17.44zm-42.32 152l-137.44-36.08 36.56-137.36 137.36 36.56-36.48 136.88z"></path>
    <path d="M240.823 124.636a26.965 26.965 0 0 0-5.68-7.36l-40-42.16-4.72-5.12a23.983 23.983 0 0 0-3.92-3.28 11.205 11.205 0 0 0-4.8-1.84 13.52 13.52 0 0 0-10.88 4.32 11.113 11.113 0 0 0-2.24 4.64c-.406 2-.594 4.039-.56 6.08v64.24c.16 2.4.293 4.24.4 5.52a11.94 11.94 0 0 0 .72 3.52 7.122 7.122 0 0 0 4.24 4c1.948.8 4.132.8 6.08 0a6.32 6.32 0 0 0 4.24-4c.6-3.081.815-6.226.64-9.36v-11.44l31.6-12.4 7.52 8 3.44 3.44a17.67 17.67 0 0 0 3.28 2.72c.9.542 1.913.87 2.96.96a7.53 7.53 0 0 0 3.44-.56 8.003 8.003 0 0 0 4.24-4.08 7.44 7.44 0 0 0 0-5.84zm-57.2-5.84l-1.12-36.32 24.32 27.2-23.2 9.12zm-66.96 192.4a19.2 19.2 0 0 0 12.48-18.32 20 20 0 0 0-1.2-6.88 19.763 19.763 0 0 0-3.44-6 20.482 20.482 0 0 0-5.2-4.48 22.092 22.092 0 0 0-8-2.88 63.206 63.206 0 0 0-10.32-.72h-26.56a10.722 10.722 0 0 0-8 2.4 10.959 10.959 0 0 0-2.4 8v62.72a11.119 11.119 0 0 0 2.32 8 10.56 10.56 0 0 0 8.08 2.48h25.52a89.697 89.697 0 0 0 11.12-1.04 34.43 34.43 0 0 0 8.8-2.24 21.523 21.523 0 0 0 9.68-8 22.883 22.883 0 0 0 3.6-12.64c.184-9.898-6.765-18.499-16.48-20.4zm-35.6-26.4h13.36c4.654-.24 9.308.467 13.68 2.08a7.999 7.999 0 0 1 4.48 8 10.328 10.328 0 0 1-1.44 5.36 9.279 9.279 0 0 1-5.28 4.56 31.048 31.048 0 0 1-9.76 1.2h-15.44l.4-21.2zm34.88 45.68c0 8.213-5.707 12.32-17.12 12.32h-18.16l.4-24.32h17.36a24.877 24.877 0 0 1 13.28 2.88 10.082 10.082 0 0 1 4.24 9.12zm216-59.04a32.56 32.56 0 0 0-9.52-12.96 38.96 38.96 0 0 0-16-8 41.433 41.433 0 0 0-16-1.2 36.636 36.636 0 0 0-14.56 5.04 38.64 38.64 0 0 0-11.6 11.04 52.01 52.01 0 0 0-7.44 16.64 56.7 56.7 0 0 0-1.92 11.6c-.206 3.669.035 7.35.72 10.96a41.447 41.447 0 0 0 3.2 9.92 33.272 33.272 0 0 0 6.08 8.8 33.846 33.846 0 0 0 8.48 6.32 53.172 53.172 0 0 0 11.28 4.32 38.566 38.566 0 0 0 15.44 1.2 31.449 31.449 0 0 0 12.24-4.64 31.027 31.027 0 0 0 8-7.2 22.08 22.08 0 0 0 4.08-8 6.96 6.96 0 0 0-.72-5.6 7.12 7.12 0 0 0-4.48-3.36 6.08 6.08 0 0 0-5.52.72 18.067 18.067 0 0 0-3.92 4.48 21.92 21.92 0 0 1-10.08 8 20.646 20.646 0 0 1-12.8 0 21.362 21.362 0 0 1-10.16-5.04 20.398 20.398 0 0 1-4.96-11.28 41.681 41.681 0 0 1 1.52-16 35.92 35.92 0 0 1 11.68-20.72 20 20 0 0 1 18.08-3.36c3.791.87 7.225 2.88 9.84 5.76a25.527 25.527 0 0 1 5.12 10.96 21.36 21.36 0 0 0 2.16 6.08 6.799 6.799 0 0 0 4.32 2.72 6.48 6.48 0 0 0 5.36-.88 7.286 7.286 0 0 0 3.28-4.4 19.76 19.76 0 0 0-1.2-11.92z"></path>
  </symbol>
  <symbol xmlns="http://www.w3.org/2000/svg" viewBox="0 0 512 512" id="baby-boy">
    <path d="M298.102 479.277c-5.124-2.055-10.948.435-13.003 5.562-1.717 4.283-6.071 7.161-10.833 7.161h-36.532c-4.762 0-9.116-2.878-10.833-7.161-2.055-5.127-7.876-7.612-13.003-5.562-5.126 2.056-7.616 7.877-5.561 13.003 4.803 11.98 16.341 19.72 29.397 19.72h36.532c13.056 0 24.594-7.74 29.396-19.72 2.056-5.126-.434-10.947-5.56-13.003z"></path>
    <path d="M415.541 427.762a49.337 49.337 0 0 0-23.677-33.288 49.876 49.876 0 0 0 6.267-6.089 49.758 49.758 0 0 0 11.504-39.903c-3.509-23.324-13.436-45.117-28.707-63.024a126.351 126.351 0 0 0-41.217-31.803c19.249-20.534 31.057-48.124 31.057-78.423-.001-52.434-35.348-96.769-83.465-110.428 6.554-7.825 10.13-17.601 10.13-27.931C297.434 16.541 280.892 0 260.561 0h-.003c-8.207 0-15.894 2.669-21.643 7.514-6.354 5.354-9.853 12.879-9.854 21.188 0 5.522 4.477 10 10 10 5.522 0 10-4.477 10-10 0-2.379.922-4.362 2.742-5.896 2.148-1.81 5.257-2.807 8.756-2.807h.001c9.304 0 16.874 7.568 16.874 16.872a23.437 23.437 0 0 1-6.91 16.682 23.436 23.436 0 0 1-16.679 6.909h-.002c-.245 0-.485.019-.725.037-61.956 1.536-111.885 52.413-111.886 114.732 0 30.299 11.808 57.889 31.057 78.423a126.344 126.344 0 0 0-41.216 31.803c-15.271 17.907-25.198 39.7-28.708 63.023a49.763 49.763 0 0 0 11.504 39.904 49.806 49.806 0 0 0 6.267 6.089 49.334 49.334 0 0 0-23.677 33.288 49.34 49.34 0 0 0 9.584 39.816l21.415 27.365c8.652 11.056 21.795 17.001 35.126 17.001 7.568 0 15.198-1.916 22.1-5.901 19.061-11.005 27.229-34.697 19-55.109l-12.991-32.228a49.27 49.27 0 0 0-3.039-6.202H261c5.523 0 10-4.478 10-10s-4.477-10-10-10h-92.356v-21.081a4.928 4.928 0 0 1 4.923-4.923h164.867a4.929 4.929 0 0 1 4.923 4.923v22.464a49.334 49.334 0 0 0-22.051 24.819l-12.991 32.227c-8.229 20.413-.061 44.105 19 55.11 6.903 3.985 14.53 5.901 22.1 5.901 13.33 0 26.475-5.946 35.127-17.001l21.414-27.365a49.332 49.332 0 0 0 9.585-39.815zm-254.31-252.53c.001-52.255 42.515-94.768 94.769-94.769 52.254.001 94.768 42.514 94.769 94.769 0 52.255-42.513 94.768-94.769 94.769-52.255-.001-94.769-42.514-94.769-94.769zm10.915 250.951l12.991 32.229c4.525 11.227.031 24.258-10.452 30.311-10.482 6.053-24.015 3.43-31.476-6.105l-21.415-27.365a29.343 29.343 0 0 1-5.701-23.683 29.348 29.348 0 0 1 14.143-19.836 29.352 29.352 0 0 1 24.249-2.33 29.351 29.351 0 0 1 17.661 16.779zM338.5 326.5c-5.523 0-10 4.478-10 10v10H183.566v-10c0-5.522-4.477-10-10-10s-10 4.478-10 10v12.101c-8.777 3.861-14.923 12.635-14.923 22.822v14.121a29.771 29.771 0 0 1-19.617-10.207 29.785 29.785 0 0 1-6.884-23.88c5.725-38.053 31.097-69.494 66.716-83.206C207.75 281.925 230.948 290 256 290s48.25-8.075 67.142-21.749c35.619 13.712 60.991 45.153 66.716 83.206a29.782 29.782 0 0 1-6.885 23.88 29.769 29.769 0 0 1-19.617 10.207v-14.121c0-10.161-6.115-18.916-14.856-22.792V336.5c0-5.522-4.477-10-10-10zm51.706 128.752l-21.414 27.365c-7.461 9.533-20.992 12.157-31.476 6.105-10.484-6.053-14.977-19.084-10.451-30.313l12.991-32.228a29.348 29.348 0 0 1 17.661-16.779 29.35 29.35 0 0 1 24.249 2.331 29.351 29.351 0 0 1 14.143 19.836 29.351 29.351 0 0 1-5.703 23.683z"></path>
    <path d="M307.79 395.43c-1.86-1.86-4.44-2.93-7.07-2.93s-5.21 1.069-7.07 2.93a10.077 10.077 0 0 0-2.93 7.07c0 2.64 1.07 5.21 2.93 7.069 1.86 1.87 4.44 2.931 7.07 2.931s5.21-1.061 7.07-2.931c1.86-1.859 2.93-4.439 2.93-7.069s-1.07-5.21-2.93-7.07zm-24.22-186.048c-4.29-3.478-10.587-2.817-14.065 1.472-3.323 4.1-8.246 6.451-13.505 6.451a17.32 17.32 0 0 1-13.505-6.451c-3.477-4.291-9.774-4.948-14.065-1.472-4.291 3.477-4.95 9.774-1.472 14.065 7.138 8.807 17.724 13.857 29.042 13.857s21.905-5.051 29.042-13.857c3.478-4.291 2.819-10.588-1.472-14.065zm-52.839-41.222c-9.071-9.071-23.831-9.071-32.904 0-3.905 3.905-3.906 10.236 0 14.142 3.905 3.906 10.237 3.906 14.142.001a3.272 3.272 0 0 1 4.62 0 9.972 9.972 0 0 0 7.071 2.929 9.97 9.97 0 0 0 7.071-2.929c3.905-3.905 3.905-10.237 0-14.143zm83.442-.001c-9.072-9.07-23.833-9.07-32.904 0-3.905 3.905-3.905 10.237 0 14.143a9.966 9.966 0 0 0 7.071 2.929 9.97 9.97 0 0 0 7.071-2.929 3.272 3.272 0 0 1 4.62 0c3.905 3.906 10.237 3.905 14.142-.001 3.905-3.905 3.905-10.236 0-14.142z"></path>
  </symbol>
  <symbol xmlns="http://www.w3.org/2000/svg" viewBox="0 0 475.6 475.6" id="baby-food">
    <path d="M357.8 241l-.7-48.4c-.1-5.4-4.5-9.8-9.9-9.8h-10.8c-4.3-22-24.5-38.8-48.7-38.8-1.3 0-2.6 0-3.9.1-9.2-35-42.2-60.3-81-60.3-30.1 0-57.8 15.5-72.5 40.1-3-.5-6.1-.7-9.2-.7-17.6-.1-34.4 7.5-45.9 20.9-1.6-.1-3.2-.2-4.8-.2-24.2 0-44.4 16.8-48.7 38.8h-8.5c-5.3 0-9.7 4.1-10 9.4L.4 240.3l-.2 3.3c-.2 2.5-.2 5.1-.2 8.1 0 77.3 62.7 140 140 140h77.6c47.4.1 91.6-23.9 117.3-63.7.1-.1.1-.2.2-.3l.4-.6c15.1-23.3 23-50.6 22.5-78.3l-.2-7.8zM70.3 164c2.3 0 4.6.2 6.9.7 4 .9 8.2-.7 10.6-4.2 7.5-10.9 20-17.4 33.2-17.2 4 0 7.9.6 11.7 1.7 4.7 1.4 9.7-.9 11.8-5.4 10.1-21.7 33-35.7 58.2-35.7 32.4 0 59.5 22.8 63.1 53 .7 5.5 5.6 9.4 11.1 8.7.6-.1 1.1-.2 1.6-.3 2.9-.8 6-1.2 9-1.2 13 0 24.1 7.8 28 18.8H42.3c4-11.1 15-18.9 28-18.9zm-47.7 38.8h314.7l.4 28H20.9l1.7-28zm296 113.4c-.1.1-.1.3-.2.4l-.4.7c-22.1 34-59.9 54.5-100.5 54.5h-77.6c-66.3 0-120-53.7-120-119.9v-1.1H338c.1 23.3-6.6 46-19.4 65.4zm157-159.7c0-19.3-5.4-37.5-15.2-51.3-10.6-14.9-24.9-23.1-40.5-23.1-15.6 0-29.9 8.2-40.5 23.1-9.8 13.8-15.2 32-15.2 51.3 0 30.4 13.2 56.8 33.5 68.3L391 363.4c0 .2-.2.3-.2.5v.8c.1 16 13.1 28.8 29.1 28.8 7.8 0 15.3-3.2 20.7-8.9 5.5-5.7 8.4-13.3 8-21.2l-6.5-138.6c20.3-11.5 33.5-37.9 33.5-68.3zm-49.4 214.3c-1.7 1.7-4 2.7-6.5 2.7-4.9 0-8.8-3.9-8.9-8.8v-.6l6.4-133.3c.8 0 1.8.1 2.6.1s1.7 0 2.5-.1l6.3 133.6c.1 2.3-.7 4.6-2.4 6.4zm2.1-161.6c-5.4 2.1-11.4 2.1-16.8 0-15.8-6-27.3-28.2-27.3-52.7 0-29.5 16.4-54.4 35.7-54.4s35.7 24.9 35.7 54.4c0 24.6-11.5 46.8-27.3 52.7z"></path>
  </symbol>
  <symbol xmlns="http://www.w3.org/2000/svg" viewBox="0 0 512 512" id="diaper">
    <path d="M512 254.72c0-11.491-6.963-20.833-17.067-24.224v-9.909c0-23.893-18.773-42.667-42.667-42.667H59.733c-23.893 0-42.667 18.773-42.667 42.667v9.909C6.963 233.887 0 243.229 0 254.72c0 11.535 7.018 20.906 17.185 24.263a237.327 237.327 0 0 0 4.871 41.317c.026.326.065.653.13.98 19.627 92.16 92.16 164.693 184.32 184.32h.387A237.573 237.573 0 0 0 256 510.72c16.82 0 33.245-1.772 49.107-5.12h.386c92.16-19.627 164.693-92.16 184.32-184.32.064-.321.103-.647.129-.975a237.277 237.277 0 0 0 4.872-41.322C504.982 275.626 512 266.255 512 254.72zm-25.6 8.533h-51.2c-2.56 0-5.12-1.707-6.827-3.413-1.398-1.398-1.647-3.371-1.693-5.446.025-.842.135-1.639.339-2.376 1.342-3.051 5.183-5.832 9.034-5.832H486.4c5.12 0 8.533 3.413 8.533 8.533s-3.413 8.534-8.533 8.534zM25.6 246.187h50.347c3.85 0 7.692 2.781 9.034 5.832.205.737.315 1.534.339 2.376-.046 2.075-.295 4.048-1.693 5.446-1.483 2.225-3.612 3.159-5.824 3.365-.017.002-.032.005-.049.006-.317.028-.635.042-.954.042H25.6c-5.12 0-8.533-3.413-8.533-8.533s3.413-8.534 8.533-8.534zm176.64 240.64c-79.36-19.627-141.653-81.92-161.28-161.28 9.387-1.707 17.92-2.56 27.307-2.56 75.093 0 136.533 61.44 136.533 136.533 0 8.533-.853 17.92-2.56 27.307zm16.518 3.697c2.063-10.583 3.109-21.052 3.109-31.004 0-84.48-69.12-153.6-153.6-153.6-10.014 0-20.552 1.06-31.202 3.149a220.896 220.896 0 0 1-2.932-28.749H76.8c9.988 0 18.358-5.26 22.603-13.271 2.782-4.75 3.656-10.67 2.997-16.596a25.65 25.65 0 0 0-1.564-4.817c-3.54-9.806-12.755-16.516-24.036-16.516H34.133v-8.533c0-14.507 11.093-25.6 25.6-25.6H76.8v17.067c0 5.12 3.413 8.533 8.533 8.533 5.12 0 8.533-3.413 8.533-8.533v-17.067h25.6v17.067c0 5.12 3.413 8.533 8.533 8.533s8.533-3.413 8.533-8.533v-17.067h25.6v17.067c0 5.12 3.413 8.533 8.533 8.533s8.533-3.413 8.533-8.533v-17.067h25.6v17.067c0 5.12 3.413 8.533 8.533 8.533 5.12 0 8.533-3.413 8.533-8.533v-17.067h25.6v17.067c0 5.12 3.413 8.533 8.533 8.533s8.533-3.413 8.533-8.533v-17.067h25.6v17.067c0 5.12 3.413 8.533 8.533 8.533s8.533-3.413 8.533-8.533v-17.067h25.6v17.067c0 5.12 3.413 8.533 8.533 8.533 5.12 0 8.533-3.413 8.533-8.533v-17.067h25.6v17.067c0 5.12 3.413 8.533 8.533 8.533s8.533-3.413 8.533-8.533v-17.067h25.6v17.067c0 5.12 3.413 8.533 8.533 8.533s8.533-3.413 8.533-8.533v-17.067h17.067c14.507 0 25.6 11.093 25.6 25.6v8.533H435.2c-9.151 0-16.94 4.417-21.447 11.318-2.157 2.972-3.633 6.374-4.153 10.015a27.425 27.425 0 0 0 .605 9.984c2.488 11.603 12.465 19.882 24.995 19.882h42.667a220.896 220.896 0 0 1-2.932 28.749c-10.65-2.089-21.188-3.149-31.202-3.149-84.48 0-153.6 69.12-153.6 153.6 0 9.952 1.045 20.421 3.109 31.004A223.011 223.011 0 0 1 256 493.652a222.897 222.897 0 0 1-37.242-3.128zM307.2 459.52c0-75.093 61.44-136.533 136.533-136.533 9.387 0 17.92.853 27.307 2.56-19.627 79.36-81.92 141.653-161.28 161.28-1.707-9.387-2.56-17.92-2.56-27.307zM449.707 64.427l25.6-25.6V26.88l-25.6-25.6H437.76l-25.6 25.6v11.947l25.6 25.6h11.947zM443.733 19.2l13.653 13.653-13.653 13.653-13.653-13.653L443.733 19.2zM145.067 75.52c14.507 0 25.6 11.093 25.6 25.6 0 5.12 3.413 8.533 8.533 8.533s8.533-3.413 8.533-8.533c0-14.507 11.093-25.6 25.6-25.6 5.12 0 8.533-3.413 8.533-8.533s-3.413-8.533-8.533-8.533c-14.507 0-25.6-11.093-25.6-25.6 0-5.12-3.413-8.533-8.533-8.533s-8.533 3.413-8.533 8.533c0 14.507-11.093 25.6-25.6 25.6-5.12 0-8.533 3.413-8.533 8.533s3.413 8.533 8.533 8.533zM179.2 58.453c2.56 3.413 5.12 5.973 8.533 8.533-3.413 2.56-5.973 5.12-8.533 8.533-2.56-3.413-5.12-5.973-8.533-8.533 3.413-2.559 5.973-5.119 8.533-8.533zm153.6 59.734h8.533v8.533c0 5.12 3.413 8.533 8.533 8.533s8.533-3.413 8.533-8.533v-8.533h8.533c5.12 0 8.533-3.413 8.533-8.533s-3.413-8.533-8.533-8.533H358.4v-8.533c0-5.12-3.413-8.533-8.533-8.533s-8.533 3.413-8.533 8.533v8.533H332.8c-5.12 0-8.533 3.413-8.533 8.533s3.413 8.533 8.533 8.533zm-230.4 17.066c5.12 0 8.533-3.413 8.533-8.533s-3.413-8.533-8.533-8.533-8.533 3.413-8.533 8.533 3.413 8.533 8.533 8.533zM34.133 49.92c5.12 0 8.533-3.413 8.533-8.533s-3.413-8.533-8.533-8.533c-5.12 0-8.533 3.413-8.533 8.533s3.413 8.533 8.533 8.533z"></path>
  </symbol>
  <symbol xmlns="http://www.w3.org/2000/svg" viewBox="0 0 420.8 420.8" id="heart">
    <path d="M413.6 204H378c14.8-33.6 13.2-60.8 7.6-79.2-9.6-32.8-42-68.4-90-68.4-12.8 0-25.6 2.4-38.8 7.2C234 72 218.8 81.2 212 86c-6.8-4.8-21.6-14-44.8-22.4-13.2-4.8-26.4-7.2-38.8-7.2-48 0-80.4 35.6-90 68.4-5.6 19.6-7.6 49.2 11.2 86.4H6.4c-3.6 0-6.4 2.8-6.4 6.4 0 3.6 2.8 6.4 6.4 6.4h50.8c2 3.6 4.4 7.2 7.2 10.8 41.6 60 132 125.2 148.4 129.2v.4s.4 0 .8-.4h1.2v-.4c14-6.8 100.8-62.8 146.4-129.2 4.4-6 8-12 11.2-18h42c3.6 0 6.4-2.8 6.4-6.4 0-3.6-3.6-6-7.2-6zm-64 23.6c-42.4 62-120.4 112-137.2 122.8-17.2-10.8-94.8-61.2-137.6-122.8l-2.4-3.6h58.8c2.4 0 4.8-1.2 6-3.6l26.8-52.8 42 107.6c.8 2.4 3.6 4 6 4h.4c2.8 0 5.2-2 6-4.8l36.8-126 19.6 63.6c.8 2.4 2.8 4 5.2 4.4 2.4.4 4.8-.8 6.4-2.8l15.6-22.8 13.2 22.4c1.2 2 3.2 3.2 5.6 3.2h36c-2.4 4-4.8 7.6-7.2 11.2zM364 204h-39.2l-16.4-28c-1.2-2-3.2-3.2-5.6-3.2-2.4 0-4.4.8-5.6 2.8l-13.6 20-22-71.6c-.8-2.8-3.6-4.4-6.4-4.8-2.8 0-5.6 2-6.4 4.8l-37.2 128.4-40.4-103.2c-.8-2.4-3.2-4-5.6-4-2.8 0-4.8 1.2-6 3.6l-31.6 62H64.4c-16-29.2-20.4-57.2-13.2-82.4 8.4-28.4 36-58.8 77.6-58.8 11.2 0 22.8 2.4 34.4 6.4 29.2 10.8 44.8 23.2 45.2 23.2 2.4 2 5.6 2 8 0 0 0 15.6-12.4 45.2-23.2 11.6-4.4 23.2-6.4 34.4-6.4 41.2 0 69.2 30.4 77.6 58.8 6.8 23.2 3.2 48.8-9.6 75.6z"></path>
  </symbol>
  <symbol xmlns="http://www.w3.org/2000/svg" viewBox="0 0 512 512" id="maternity">
    <path d="M396.439 494.006l-53.706-53.713a10.003 10.003 0 0 0-7.071-2.929h-.014l-28.815.041h-.189c-15.906 0-31.84-2.925-46.753-8.506l17.291-11.595c7.078-4.746 11.837-11.973 13.402-20.35 1.564-8.378-.266-16.836-5.154-23.818-6.078-8.68-15.866-13.392-25.832-13.392-.162 0-.324.001-.487.004l39.829-39.829c12.083-12.084 12.083-31.746 0-43.83a30.939 30.939 0 0 0-10.099-6.753c2.766-4.702 4.245-10.073 4.245-15.672 0-8.278-3.224-16.062-9.077-21.916-5.854-5.854-13.637-9.078-21.916-9.078-5.599 0-10.969 1.48-15.672 4.246a30.954 30.954 0 0 0-6.753-10.1c-5.854-5.854-13.637-9.078-21.916-9.078s-16.062 3.224-21.916 9.078l-14.301 14.301a31.013 31.013 0 0 0-6.322-9.12c-5.854-5.854-13.637-9.077-21.916-9.077s-16.062 3.224-21.916 9.077l-6.339 6.339-25.771-25.626c-7.486-7.486-7.486-19.667 0-27.153 7.013-7.013 18.145-7.455 25.678-1.33l24.958 24.959c1.953 1.953 4.512 2.929 7.071 2.929s5.119-.977 7.071-2.929c3.905-3.905 3.905-10.237 0-14.142l-43.056-43.056c-7.486-7.487-7.486-19.668 0-27.154 7.486-7.487 19.668-7.486 27.154 0l75.437 75.582a9.968 9.968 0 0 0 7.071 2.929 9.97 9.97 0 0 0 7.071-2.929c3.905-3.905 3.905-10.237 0-14.142l-57.339-57.485c-6.125-7.534-5.682-18.665 1.33-25.677 7.487-7.486 19.669-7.486 27.154 0l21.008 21.009c3.906 3.906 10.238 3.906 14.142 0 3.905-3.905 3.906-10.237 0-14.142L223.013 78.97c-15.285-15.284-40.154-15.283-55.438 0a38.948 38.948 0 0 0-10.134 17.604c-6.621-4.778-14.545-7.363-22.871-7.363-10.471 0-20.315 4.078-27.719 11.481-13.758 13.758-15.124 35.279-4.114 50.589a38.945 38.945 0 0 0-17.608 10.135c-14.424 14.425-15.228 37.382-2.427 52.767a38.94 38.94 0 0 0-17.221 10.031c-15.283 15.284-15.283 40.153 0 55.438l4.463 4.463c-16.875 20.262-26.046 45.543-26.008 72.24l.024 16.564-41.031 41.034c-3.905 3.905-3.905 10.237 0 14.143 1.953 1.952 4.512 2.929 7.071 2.929s5.119-.977 7.071-2.929l43.966-43.967a10 10 0 0 0 2.929-7.086l-.03-20.715c-.036-24.854 9.625-48.223 27.2-65.798l49.626-49.627.001-.001 4.76-4.76a10.916 10.916 0 0 1 7.773-3.22c2.937 0 5.697 1.143 7.773 3.22a10.916 10.916 0 0 1 3.22 7.773 10.9 10.9 0 0 1-2.402 6.85l-13.219 13.219c-3.905 3.905-3.905 10.237 0 14.143.009.009.019.016.027.025l.025.027a9.972 9.972 0 0 0 7.071 2.929 9.97 9.97 0 0 0 7.071-2.929l47.114-47.219a10.916 10.916 0 0 1 7.773-3.22 10.92 10.92 0 0 1 7.773 3.22c3.99 3.99 4.261 10.308.821 14.62l-47.988 48.093c-3.905 3.905-3.905 10.237 0 14.143a9.972 9.972 0 0 0 7.071 2.929 9.97 9.97 0 0 0 7.071-2.929l61.819-61.924c2.076-2.077 4.836-3.22 7.773-3.22s5.697 1.144 7.773 3.22c4.286 4.286 4.286 11.26 0 15.546l-61.923 61.818c-3.905 3.905-3.906 10.237 0 14.143 3.906 3.904 10.238 3.905 14.142 0l48.094-47.988c4.311-3.441 10.629-3.17 14.619.822 4.286 4.285 4.286 11.26 0 15.545l-67.515 67.517c-4.756 4.755-5.196 12.047-1.045 17.339 4.15 5.292 11.338 6.603 17.09 3.116l20.397-12.365c5.142-3.119 11.872-1.702 15.321 3.225a11.368 11.368 0 0 1 1.877 8.675 11.37 11.37 0 0 1-4.88 7.41l-47.189 31.644c-15.355 10.297-33.236 15.736-51.722 15.736h-.131l-32.051-.046h-.014a10.001 10.001 0 0 0-7.071 2.929l-43.967 43.967c-3.905 3.905-3.905 10.237 0 14.143a9.972 9.972 0 0 0 7.071 2.929 9.97 9.97 0 0 0 7.071-2.929l41.032-41.032 27.901.04h.158c22.465 0 44.201-6.612 62.861-19.125l10.105-6.776c20.649 9.964 43.623 15.233 66.546 15.233h.218l24.664-.035 50.776 50.776c1.953 1.952 4.512 2.929 7.071 2.929s5.119-.977 7.071-2.929c3.905-3.905 3.905-10.237 0-14.143zM104.355 249.027l-.002.002-20.606 20.606-4.123-4.123c-7.486-7.487-7.486-19.668 0-27.154 7.013-7.013 18.145-7.455 25.678-1.33l5.526 5.526-6.473 6.473zM509.07 381.382c-1.86-1.87-4.44-2.93-7.07-2.93s-5.21 1.06-7.07 2.93a10.058 10.058 0 0 0-2.93 7.07c0 2.63 1.07 5.21 2.93 7.069 1.86 1.86 4.44 2.931 7.07 2.931s5.21-1.07 7.07-2.931a10.091 10.091 0 0 0 2.93-7.069c0-2.641-1.07-5.21-2.93-7.07zm-26.89-26.894l-23.886-23.886.058-40.432c.043-30.548-8.926-60.105-25.94-85.477l-44.015-65.638c-6.012-8.966-15.167-14.995-25.778-16.977-10.612-1.982-21.325.337-30.167 6.529-14.488 10.145-20.249 28.449-15.126 44.675l-26.135-26.136c-3.905-3.904-10.237-3.904-14.143 0-3.905 3.905-3.905 10.237 0 14.143l56.144 56.144c5.194 5.194 13.161 5.675 18.941 1.14 5.78-4.534 7.212-12.385 3.403-18.668l-17.2-28.372c-5.4-8.908-2.946-20.567 5.587-26.542a19.699 19.699 0 0 1 15.024-3.251 19.694 19.694 0 0 1 12.838 8.455l44.015 65.638c14.791 22.058 22.589 47.753 22.551 74.309l-.063 44.582a10 10 0 0 0 2.929 7.086l26.821 26.821c1.953 1.952 4.512 2.929 7.071 2.929s5.119-.977 7.071-2.929c3.905-3.905 3.905-10.237 0-14.143z"></path>
    <path d="M267.68 123.642a10.035 10.035 0 0 0-7.06-2.93 10.1 10.1 0 0 0-7.08 2.93 10.076 10.076 0 0 0-2.93 7.07c0 2.64 1.07 5.21 2.93 7.07a10.1 10.1 0 0 0 7.08 2.93c2.63 0 5.2-1.07 7.06-2.93 1.87-1.86 2.94-4.44 2.94-7.07s-1.07-5.21-2.94-7.07zm92.805 155.182c3.905-3.905 3.905-10.237 0-14.143-3.905-3.904-10.237-3.904-14.143 0l-4.362 4.362c-18.674 18.675-18.674 49.061 0 67.735a9.972 9.972 0 0 0 7.071 2.929 9.97 9.97 0 0 0 7.071-2.929c3.905-3.905 3.906-10.237 0-14.143-10.876-10.876-10.876-28.574 0-39.45l4.363-4.361zM477.299 54.002c-6.357 0-12.571 1.804-17.944 5.103-5.373-3.299-11.587-5.103-17.944-5.103-19.134 0-34.701 15.852-34.701 35.335 0 11.042 7.939 24.303 24.271 40.543 10.996 10.934 21.843 19.256 22.3 19.605 1.792 1.371 3.933 2.056 6.074 2.056s4.281-.685 6.074-2.056c.457-.349 11.304-8.672 22.3-19.605C504.061 113.641 512 100.379 512 89.337c0-19.484-15.567-35.335-34.701-35.335zm-17.947 74.746c-16.712-13.88-32.642-31.59-32.642-39.411 0-8.456 6.595-15.335 14.701-15.335 4.032 0 7.794 1.671 10.594 4.707a10.001 10.001 0 0 0 14.7 0c2.8-3.035 6.562-4.707 10.594-4.707 8.106 0 14.701 6.879 14.701 15.335 0 7.801-15.935 25.516-32.648 39.411zM70.589.003c-6.357 0-12.571 1.804-17.944 5.103C47.272 1.807 41.058.003 34.701.003 15.567.002 0 15.853 0 35.337 0 46.379 7.939 59.64 24.271 75.88c10.996 10.934 21.844 19.257 22.3 19.606 1.792 1.371 3.933 2.056 6.074 2.056s4.281-.685 6.074-2.056c.457-.349 11.304-8.672 22.3-19.605 16.332-16.24 24.271-29.501 24.271-40.543C105.29 15.854 89.723.003 70.589.003zM52.642 74.748C35.929 60.868 20 43.159 20 35.337c0-8.456 6.595-15.335 14.701-15.335 4.032 0 7.794 1.671 10.594 4.707a10.001 10.001 0 0 0 14.7 0c2.8-3.035 6.562-4.707 10.594-4.707 8.106 0 14.701 6.879 14.701 15.335 0 7.8-15.935 25.516-32.648 39.411z"></path>
  </symbol>
  <symbol xmlns="http://www.w3.org/2000/svg" viewBox="0 0 512.019 512.019" id="family">
    <path d="M345.293 221.167c-6.705 0-12.159 5.455-12.159 12.16s5.454 12.159 12.159 12.159c6.705 0 12.16-5.455 12.16-12.159 0-6.705-5.455-12.16-12.16-12.16zm69.732 0c-6.705 0-12.16 5.455-12.16 12.16s5.455 12.159 12.16 12.159 12.159-5.455 12.159-12.159c0-6.705-5.454-12.16-12.159-12.16zm-318.031 0c-6.705 0-12.16 5.455-12.16 12.16s5.455 12.159 12.16 12.159 12.159-5.455 12.159-12.159c0-6.705-5.454-12.16-12.159-12.16zm69.732 0c-6.705 0-12.16 5.455-12.16 12.16s5.455 12.159 12.16 12.159 12.16-5.455 12.16-12.159c-.001-6.705-5.455-12.16-12.16-12.16z"></path>
    <path d="M507.633 393.759a7.496 7.496 0 0 0-9.137-5.387 7.5 7.5 0 0 0-5.387 9.137 116.786 116.786 0 0 1 3.479 22.057H354.581a27.138 27.138 0 0 0-6.165-1.794c.001-.171.007-.341.007-.513 0-33.369-17.34-62.763-43.48-79.651 11.474-9.712 24.536-17.017 38.568-21.643 5.496 15.091 19.997 25.663 36.649 25.663 16.63 0 31.115-10.543 36.628-25.602a116.712 116.712 0 0 1 65.947 55.147c2.081 3.832 7.141 5.069 10.768 2.648 3.179-2.122 4.235-6.454 2.414-9.808a131.944 131.944 0 0 0-21.446-29.107c6.931-5.175 12.912-13.06 17.856-23.578 19.619-41.736 19.572-121.474 5.771-157.476-9.194-23.984-25.227-44.355-46.363-58.91-21.15-14.565-45.9-22.264-71.574-22.264a126.204 126.204 0 0 0-83.262 31.365 7.5 7.5 0 0 0 9.893 11.275 111.21 111.21 0 0 1 73.369-27.64c22.621 0 44.43 6.784 63.067 19.618 18.629 12.829 32.76 30.784 40.864 51.925 12.505 32.624 12.498 107.777-5.341 145.726-4.527 9.629-9.798 16.174-15.707 19.542a131.627 131.627 0 0 0-43.371-23.31c30.938-14.8 52.361-46.41 52.361-82.933v-15.173a7.5 7.5 0 0 0-6.23-7.392c-37.126-6.383-62.82-44.06-63.07-44.432-3.279-4.905-10.956-4.123-13.181 1.337-.176.43-18.389 42.987-93.769 42.987a7.5 7.5 0 0 0-7.5 7.5v15.173c0 36.499 21.395 68.092 52.301 82.904-15.701 4.926-30.367 12.795-43.32 23.333-5.905-3.37-11.173-9.913-15.697-19.537-17.838-37.949-17.845-113.102-5.34-145.725a111.781 111.781 0 0 1 11.917-22.814 7.5 7.5 0 0 0-12.404-8.434 126.854 126.854 0 0 0-13.519 25.878c-13.8 36.001-13.848 115.739 5.772 157.475 2.499 5.316 5.268 9.944 8.285 13.906a94.467 94.467 0 0 0-20.415-2.706c-.748-5.871-1.259-14.179.166-20.652a7.5 7.5 0 0 0-14.649-3.225c-1.395 6.336-1.433 13.367-1.028 19.301-11.778-7.544-14.032-18.947-14.16-19.649a7.5 7.5 0 0 0-14.797 2.463c.132.814 2.579 14.705 15.24 25.667a94.501 94.501 0 0 0-6.874 2.341c-14.13-12.694-30.588-22.037-48.348-27.613 15.706-7.522 28.954-19.38 38.191-34.012a27.263 27.263 0 0 0 12.494 3.04c15.079 0 27.347-12.268 27.347-27.347a27.188 27.188 0 0 0-4.979-15.704c19.574-56.836 10.939-90.129.041-108.144-10.871-17.969-28.934-29.52-50.861-32.524-15.593-2.137-28.348 2.025-35.499 5.29-10.429-12.417-22.3-19.081-46.92-19.081-28.256 0-68.318 14.655-89.508 46.832-23.511 35.701-14.992 77.68-2.732 108.005a27.187 27.187 0 0 0-4.711 15.327c0 15.079 12.268 27.347 27.348 27.347 4.385 0 8.664-1.066 12.493-3.04 9.225 14.614 22.452 26.461 38.132 33.985-20.819 6.525-39.779 18.232-55.38 34.486-2.604 2.713-2.769 7.082-.366 9.978 2.821 3.398 8.128 3.596 11.188.409 13.434-13.997 29.681-24.182 47.516-30.052 5.493 15.097 19.995 25.675 36.652 25.675 16.645 0 31.14-10.563 36.641-25.643 13.212 4.359 25.579 11.086 36.558 19.959-27.626 16.575-46.157 46.82-46.157 81.315 0 .172.006.342.007.513a27.138 27.138 0 0 0-6.165 1.794H15.433c1.108-17.95 6.34-35.44 15.298-50.977a7.5 7.5 0 0 0-12.994-7.493C6.271 380.981.211 403.69.211 426.77v.296a7.5 7.5 0 0 0 7.5 7.5h130.338a27.198 27.198 0 0 0-1.971 10.174c0 15.079 12.268 27.347 27.347 27.347 3.95 0 7.792-.847 11.307-2.453 16.995 25.528 46.029 42.385 78.929 42.385 32.901 0 61.935-16.857 78.93-42.385a27.164 27.164 0 0 0 11.307 2.453c15.079 0 27.348-12.268 27.348-27.347 0-3.595-.704-7.027-1.971-10.174h135.032a7.5 7.5 0 0 0 7.5-7.5v-.296a132.021 132.021 0 0 0-4.174-33.011zm-285.536-138.57c-1.972 0-3.85-.47-5.546-1.333a91.15 91.15 0 0 0 6.359-23.32c6.429.422 11.534 5.772 11.534 12.306.001 6.808-5.539 12.347-12.347 12.347zM34.246 127.76c18.136-27.539 52.617-40.082 76.98-40.082 23.792 0 30.552 6.839 38.857 18.104 2.37 3.216 6.879 3.984 10.21 1.781.131-.088 13.385-8.692 31.316-6.232 17.354 2.377 31.582 11.408 40.063 25.427 12.628 20.875 12.682 52.065.259 90.573a27.152 27.152 0 0 0-8.197-1.783v-12.475a7.5 7.5 0 0 0-6.229-7.392c-37.127-6.383-62.821-44.06-63.071-44.432-3.27-4.894-10.933-4.182-13.162 1.29-.045.107-4.703 10.854-18.377 21.433-18.264 14.131-44.34 21.6-75.41 21.6a7.5 7.5 0 0 0-7.5 7.5v12.475a27.142 27.142 0 0 0-8.793 2.019c-13.589-35.886-12.578-66.069 3.054-89.806zm7.377 127.429c-6.809 0-12.348-5.539-12.348-12.347 0-6.534 5.105-11.884 11.534-12.306a91.13 91.13 0 0 0 6.353 23.306 12.24 12.24 0 0 1-5.539 1.347zm13.551-31.834l-.008-.107a77.38 77.38 0 0 1-.18-5.001v-7.806c56.892-2.037 83.318-27.061 93.989-41.73 10.322 12.264 31.442 33.275 59.76 40.432v9.104c0 1.682-.074 3.346-.18 5.001l-.008.108c-2.641 40.013-36.016 71.765-76.686 71.765-40.671-.001-74.046-31.752-76.687-71.766zm76.686 103.274c-9.748 0-18.294-5.886-22.015-14.448a118.288 118.288 0 0 1 22.015-2.06c7.461 0 14.822.704 22.008 2.073-3.724 8.555-12.265 14.435-22.008 14.435zm248.299 0c-9.744 0-18.288-5.882-22.012-14.44a117.895 117.895 0 0 1 22.012-2.069c7.467 0 14.823.727 21.995 2.102-3.731 8.54-12.264 14.407-21.995 14.407zm-76.875-108.383v-7.806c56.892-2.037 83.319-27.061 93.989-41.73 10.322 12.264 31.443 33.275 59.76 40.432v9.104c0 42.389-34.485 76.874-76.874 76.874s-76.875-34.485-76.875-76.874zM163.425 457.087c-6.808 0-12.347-5.539-12.347-12.347 0-5.688 3.871-10.476 9.112-11.903a93.978 93.978 0 0 0 7.188 23.58c-1.262.432-2.591.67-3.953.67zm90.237 39.932c-43.98 0-79.76-35.78-79.76-79.76s35.78-79.76 79.76-79.76c43.98 0 79.76 35.78 79.76 79.76s-35.78 79.76-79.76 79.76zm90.237-39.932c-1.361 0-2.69-.238-3.952-.67a93.99 93.99 0 0 0 7.188-23.58c5.241 1.427 9.112 6.216 9.112 11.903 0 6.808-5.539 12.347-12.348 12.347z"></path>
    <path d="M218.796 414.066c-6.705 0-12.16 5.455-12.16 12.16s5.455 12.159 12.16 12.159 12.16-5.455 12.16-12.159c0-6.706-5.454-12.16-12.16-12.16zm69.732 0c-6.705 0-12.159 5.455-12.159 12.16s5.454 12.159 12.159 12.159c6.705 0 12.16-5.455 12.16-12.159 0-6.706-5.455-12.16-12.16-12.16zM236.435 72.339c11.678 10.059 23.785 15.996 24.295 16.244a7.559 7.559 0 0 0 6.559 0c.51-.248 12.617-6.185 24.295-16.244 16.509-14.221 24.122-29.869 22.018-45.254C311.081 8.663 298.003 1.076 286.604.118c-8.65-.73-16.84 1.998-22.594 6.998-5.753-5-13.946-7.726-22.594-6.998-11.399.958-24.477 8.545-26.997 26.967-2.106 15.385 5.508 31.033 22.016 45.254zm-7.156-43.221c1.557-11.379 9.059-13.689 13.392-14.053.486-.041.97-.061 1.451-.061 5.955 0 11.388 3.056 12.73 7.337a7.5 7.5 0 0 0 14.314 0c1.449-4.627 7.681-7.826 14.181-7.276 4.333.364 11.836 2.674 13.393 14.053 2.638 19.286-21.733 37.063-34.73 44.259-13.003-7.202-37.369-24.976-34.731-44.259z"></path>
  </symbol>
  <symbol xmlns="http://www.w3.org/2000/svg" viewBox="0 0 437.254 437.254" id="ice-cream">
    <path d="M346.997 121.462A52.804 52.804 0 0 0 315.31 98.16h-.08v-1.52C315.23 43.267 271.963 0 218.59 0s-96.64 43.267-96.64 96.64v1.52c-28.237 7.282-45.224 36.076-37.942 64.313a52.796 52.796 0 0 0 23.302 31.687l13.28 30.32 90.72 208a8 8 0 0 0 14.64 0l104-238.32c24.783-15.368 32.415-47.916 17.047-72.698zM218.59 409.28l-21.44-49.2a213.671 213.671 0 0 0 37.44 12.48l-16 36.72zm22.48-51.6a207.98 207.98 0 0 1-53.84-20.16l-38.8-88.8c26.24 18.8 69.84 43.2 120.56 44.88l-27.92 64.08zm34.96-80c-72.56.64-132.88-52.8-141.44-60.8l-6.64-15.12a53.53 53.53 0 0 0 7.12.56 52.402 52.402 0 0 0 36.56-14.72c13.373 25.913 45.222 36.079 71.135 22.705A52.797 52.797 0 0 0 265.47 187.6a52.402 52.402 0 0 0 36.56 14.72 53.197 53.197 0 0 0 7.12-.56l-33.12 75.92zm64.218-124.93c-1.768 19.135-17.963 33.689-37.178 33.41l-1.04.08a36.559 36.559 0 0 1-31.36-17.6 8 8 0 0 0-10.96-2.64l-1.6 1.04a8.001 8.001 0 0 0-3.84 5.04c-4.888 19.728-24.842 31.758-44.57 26.87a36.8 36.8 0 0 1-26.87-26.87 8.001 8.001 0 0 0-3.84-5.04l-1.6-1.04a8 8 0 0 0-10.96 2.64c-10.726 17.264-33.415 22.564-50.679 11.838s-22.564-33.415-11.838-50.679a36.8 36.8 0 0 1 27.237-17.159 8.001 8.001 0 0 0 7.443-8.521l-.003-.039v-7.36c0-44.536 36.104-80.64 80.64-80.64s80.64 36.104 80.64 80.64v7.36a8 8 0 0 0 7.12 8.64c20.238 1.87 35.128 19.792 33.258 40.03z"></path>
    <path d="M212.75 31.2c-33.207.044-60.116 26.953-60.16 60.16a8 8 0 0 0 16 0c.044-24.371 19.789-44.116 44.16-44.16a8 8 0 0 0 0-16z"></path>
  </symbol>
  <symbol viewBox="-42 0 512 512.001" xmlns="http://www.w3.org/2000/svg" id="menu">
    <path d="M135.746 380.71c-.988 1.798-2.52 2.337-3.957 2.337s-2.875-.54-3.863-2.336l-10.34-19.418v39.371c0 2.43-2.965 3.688-5.84 3.688-2.969 0-5.844-1.258-5.844-3.688V344.48c0-4.312 2.875-5.84 5.844-5.84 4.223 0 6.113.9 9.078 6.2l11.059 20.137 11.054-20.137c2.97-5.3 4.946-6.2 9.172-6.2 2.965 0 5.84 1.528 5.84 5.84v56.184c0 2.43-2.965 3.688-5.84 3.688-2.968 0-5.843-1.258-5.843-3.688v-38.652zm54.738-13.847h13.664c2.336 0 3.684 2.25 3.684 4.676 0 2.066-1.168 4.496-3.684 4.496h-13.664v18.067h25.438c2.34 0 3.687 2.425 3.687 5.214 0 2.426-1.168 5.036-3.687 5.036h-32c-2.606 0-5.125-1.262-5.125-3.688v-58.34c0-2.426 2.516-3.687 5.125-3.687h32c2.52 0 3.687 2.61 3.687 5.035 0 2.789-1.347 5.215-3.687 5.215h-25.438zm77.036 33.801l-19.329-36.137v36.137c0 2.43-2.964 3.688-5.843 3.688-2.965 0-5.844-1.258-5.844-3.688v-58.34c0-2.515 2.879-3.683 5.844-3.683 4.226 0 5.933.898 8.722 6.199l17.348 33.531v-36.137c0-2.515 2.875-3.597 5.844-3.597 2.875 0 5.84 1.078 5.84 3.597v58.43c0 2.426-2.965 3.688-5.84 3.688-2.79 0-5.215-.899-6.742-3.688zm64.628-58.43c0-2.515 2.875-3.593 5.84-3.593 2.88 0 5.844 1.078 5.844 3.593v42.07c0 15.012-9.527 20.587-21.574 20.587-12.137 0-21.574-5.575-21.574-20.586v-42.07c0-2.516 2.875-3.594 5.843-3.594 2.875 0 5.84 1.078 5.84 3.593v42.07c0 7.012 3.688 10.34 9.89 10.34 6.204 0 9.888-3.328 9.888-10.34v-42.07zm23.11 79.914h-42.73a7.591 7.591 0 0 0-7.594 7.59 7.589 7.589 0 0 0 7.593 7.59h42.73a7.585 7.585 0 0 0 7.59-7.59 7.588 7.588 0 0 0-7.59-7.59zm-78.051 0H104.266a7.59 7.59 0 0 0 0 15.18h172.941a7.585 7.585 0 0 0 7.59-7.59 7.588 7.588 0 0 0-7.59-7.59zm78.051-115.906H104.266a7.59 7.59 0 0 0 0 15.18h250.992a7.588 7.588 0 0 0 7.59-7.59 7.588 7.588 0 0 0-7.59-7.59zm-4.223-94.113h-7.367c-2.844-52.3-41.074-95.34-91.11-105.527l1.465-14.004a16.25 16.25 0 0 0-4.086-12.559 16.261 16.261 0 0 0-12.066-5.371h-16.215a16.28 16.28 0 0 0-12.07 5.371 16.256 16.256 0 0 0-4.082 12.559l1.465 14.004c-50.035 10.187-88.266 53.222-91.11 105.523h-7.367c-6.515 0-11.816 5.3-11.816 11.816v15.664c0 6.516 5.3 11.817 11.816 11.817h242.54c6.515 0 11.816-5.3 11.816-11.817v-15.664c0-6.511-5.297-11.812-11.813-11.812zM220.867 90.199c.211-.23.473-.347.79-.347h16.214c.313 0 .578.117.79.347.21.235.3.512.265.82l-1.418 13.563c-2.559-.172-5.14-.27-7.742-.27-2.606 0-5.184.098-7.743.27l-1.421-13.562a1.04 1.04 0 0 1 .265-.82zm126.801 146.043H111.859v-8.933h31.989a7.591 7.591 0 1 0 0-15.18H131.07c3.242-51.625 46.266-92.633 98.692-92.633 52.43 0 95.453 41.008 98.695 92.633H179.168c-4.195 0-7.59 3.398-7.59 7.59s3.395 7.59 7.59 7.59h168.5zm0 0"></path>
    <path d="M409.484 0H50.043C39.387 0 30.715 8.672 30.715 19.328V33.04h-7.082C10.602 33.04 0 43.645 0 56.676s10.602 23.636 23.633 23.636h7.082v32.458h-7.082C10.602 112.77 0 123.37 0 136.406c0 13.031 10.602 23.633 23.633 23.633h7.082V192.5h-7.082C10.602 192.5 0 203.102 0 216.137c0 13.031 10.602 23.633 23.633 23.633h7.082v32.46h-7.082C10.602 272.23 0 282.832 0 295.863 0 308.898 10.602 319.5 23.633 319.5h7.082v32.46h-7.082C10.602 351.96 0 362.564 0 375.595c0 13.035 10.602 23.636 23.633 23.636h7.082v32.461h-7.082C10.602 431.691 0 442.293 0 455.324s10.602 23.637 23.633 23.637h7.082v13.71c0 10.657 8.672 19.329 19.328 19.329h359.441c10.657 0 19.332-8.672 19.332-19.328V19.328C428.816 8.672 420.141 0 409.484 0zM30.711 65.133h-7.078c-4.66 0-8.453-3.793-8.453-8.457 0-4.66 3.793-8.453 8.453-8.453h7.078zm0 79.726h-7.078c-4.66 0-8.453-3.793-8.453-8.453 0-4.664 3.793-8.453 8.453-8.453h7.078zm0 79.73h-7.078c-4.66 0-8.453-3.792-8.453-8.452 0-4.664 3.793-8.457 8.453-8.457h7.078zm0 79.731h-7.078c-4.66 0-8.453-3.793-8.453-8.457 0-4.66 3.793-8.453 8.453-8.453h7.078zm0 79.727h-7.078c-4.66 0-8.453-3.79-8.453-8.453 0-4.66 3.793-8.453 8.453-8.453h7.078zm0 79.73h-7.078c-4.66 0-8.453-3.793-8.453-8.453 0-4.664 3.793-8.453 8.453-8.453h7.078zm382.922 28.891a4.155 4.155 0 0 1-4.149 4.152H50.043a4.154 4.154 0 0 1-4.148-4.152V19.328a4.154 4.154 0 0 1 4.148-4.148h359.441a4.154 4.154 0 0 1 4.149 4.148zm0 0"></path>
  </symbol>
  <symbol xmlns="http://www.w3.org/2000/svg" viewBox="0 0 383.189 383.189" id="sleep">
    <path d="M226.384 123.658a8.88 8.88 0 0 0-6.16-1.92h-33.6l31.6-35.28 2.96-3.28 1.52-1.92c.528-.742.958-1.549 1.28-2.4a8.002 8.002 0 0 0 .56-2.88 6 6 0 0 0-2.96-5.76 17.84 17.84 0 0 0-8.4-1.6h-39.28a8.64 8.64 0 0 0-5.84 1.76 5.92 5.92 0 0 0-2.08 4.72c0 2.72.907 4.373 2.72 4.96 2.6.739 5.299 1.063 8 .96h25.6c-1.067 1.493-2.453 3.253-4.16 5.28l-6.56 7.36-8.88 9.6-10.32 11.44c-3.573 4-5.92 6.667-7.04 8a7.52 7.52 0 0 0 .72 10.32 10.88 10.88 0 0 0 7.36 2.16h46.72a9.116 9.116 0 0 0 6.24-1.84 6.083 6.083 0 0 0 2.08-4.72 6.398 6.398 0 0 0-2.08-4.96zm70.8 40.88a7.039 7.039 0 0 0-4.96-1.52h-26.88l25.2-28.16 2.4-2.64 1.52-1.84a8.392 8.392 0 0 0 1.04-1.92 6.394 6.394 0 0 0 .48-2.32 4.802 4.802 0 0 0-2.32-4.64 14.24 14.24 0 0 0-6.72-1.28h-31.68a6.958 6.958 0 0 0-4.64 1.44 4.721 4.721 0 0 0-1.68 3.76c0 2.133.72 3.467 2.16 4 2.082.577 4.242.82 6.4.72h20.48c-.8 1.2-1.92 2.56-3.36 4.24l-5.28 5.92-6.88 8-8 9.12c-2.88 3.2-4.773 5.387-5.68 6.56a6 6 0 0 0 .56 8 8.636 8.636 0 0 0 5.84 1.68h37.12a7.282 7.282 0 0 0 4.96-1.44 4.88 4.88 0 0 0 1.6-3.76 5.117 5.117 0 0 0-1.68-3.92zm83.92-44.96a8.88 8.88 0 0 0-6.16-1.92h-33.84l31.6-35.28 2.96-3.28 1.92-2.32c.528-.742.958-1.549 1.28-2.4a8.002 8.002 0 0 0 .56-2.88 6 6 0 0 0-2.96-5.76 17.852 17.852 0 0 0-8.4-1.6h-39.68a8.64 8.64 0 0 0-5.84 1.76 5.92 5.92 0 0 0-2.08 4.72c0 2.72.907 4.373 2.72 4.96 2.6.739 5.299 1.063 8 .96h25.6c-1.067 1.493-2.453 3.253-4.16 5.28l-6.64 7.52-8.64 9.6-10.32 11.44c-3.573 4-5.92 6.667-7.04 8a7.52 7.52 0 0 0 .72 10.32 10.88 10.88 0 0 0 7.36 2.16h46.64a9.121 9.121 0 0 0 6.4-1.6 6.083 6.083 0 0 0 2.08-4.72 6.398 6.398 0 0 0-2.08-4.96z"></path>
    <path d="M353.504 254.298a8 8 0 0 0-8.8-1.84c-86.708 35.894-186.097-5.298-221.992-92.007a169.922 169.922 0 0 1 3.032-136.873 8 8 0 0 0-10.32-10.8C20.363 51.827-25.044 160.545 14.005 255.606s147.767 140.468 242.829 101.419a186.081 186.081 0 0 0 98.111-93.848 7.998 7.998 0 0 0-1.441-8.879zm-167.28 100.8c-93.977-.016-170.147-76.212-170.131-170.189.01-61.708 33.428-118.574 87.331-148.611a183.422 183.422 0 0 0-9.6 58.8c.005 102.813 83.356 186.156 186.169 186.151a186.161 186.161 0 0 0 50.951-7.111c-31.025 50.165-85.737 80.772-144.72 80.96z"></path>
  </symbol>
  <symbol xmlns="http://www.w3.org/2000/svg" viewBox="0 0 512 512" id="poo">
    <path d="M163.704 385.898a7.5 7.5 0 0 0-7.5 7.5v16.695a7.5 7.5 0 0 0 15 0v-16.695a7.5 7.5 0 0 0-7.5-7.5zm184.501 0a7.5 7.5 0 0 0-7.5 7.5v16.695a7.5 7.5 0 0 0 15 0v-16.695a7.5 7.5 0 0 0-7.5-7.5zm-64.546 17.387a7.5 7.5 0 0 0-10.583.71c-4.172 4.773-10.414 7.51-17.122 7.51-6.71 0-12.951-2.737-17.123-7.51a7.498 7.498 0 0 0-10.583-.71 7.499 7.499 0 0 0-.71 10.583c7.021 8.032 17.377 12.638 28.416 12.638 11.038 0 21.394-4.606 28.415-12.638a7.499 7.499 0 0 0-.71-10.583zM421.937 71.139c-.622-12.709-11.973-23.866-24.402-24.112a20.688 20.688 0 0 0-4.587-7.084c-4.332-4.392-10.712-6.911-17.504-6.911-9.31 0-17.588 4.577-21.606 11.943-2.907 5.332-4.742 13.984 1.356 26.162-4.305 4.153-6.988 9.977-6.988 16.431 0 12.61 10.223 22.832 22.832 22.832 9.229 0 17.172-5.478 20.772-13.357 9.61-1.125 17.119-3.94 22.325-8.381 5.361-4.57 8.131-10.794 7.802-17.523zm-38.655-19.083c-3.234 2.606-6.627 6.637-9.463 12.854a22.996 22.996 0 0 0-2.782-.175c-.74 0-1.472.039-2.195.107-2.715-5.289-3.408-9.803-1.836-12.686 2.697-4.945 11.458-5.54 15.263-1.681.444.45.804.957 1.081 1.524l-.068.057zm10.065 29.611l-.438-.664a22.814 22.814 0 0 0-5.616-9.466c.587-1.338 1.243-2.649 2.024-3.885 1.713-2.711 4.327-5.637 7.802-5.637 4.633-.001 9.599 4.974 9.838 9.857.227 4.655-4.782 8.193-13.61 9.795z"></path>
    <path d="M482.563 364.841c-3.637-2.228-7.528-4.357-11.665-6.4 13.217-25.626 15.182-48.228 5.813-67.268-9.946-20.209-31.547-34.535-59.55-45.177 9.559-23.311 10.89-43.239 4.091-60.722-12.658-32.551-51.036-48.291-84.897-62.179-28.246-11.584-54.926-22.526-56.767-39.458a7.5 7.5 0 0 0-9.381-6.438c-1.233.328-30.562 8.221-62.83 25.71-42.099 22.819-69.357 51.563-79.075 83.307-6.572 3.509-22.463 12.763-36.72 27.058-23.433 23.497-31.672 49.801-24.037 76.398-7.489 5.806-22.985 18.862-37.315 37.505-26.156 34.03-35.599 70.349-27.312 105.031 6.58 27.531 31.189 46.759 59.846 46.759h387.341c28.385 0 51.713-17.69 59.431-45.068 7.672-27.218-2.915-54.324-26.973-69.058zm12.536 64.988c-4.439 15.748-18.886 34.138-44.993 34.138H62.765c-21.687 0-40.298-14.494-45.257-35.247-7.276-30.451.923-61.433 24.371-92.085 11.817-15.449 24.769-26.958 32.299-33.062.042.047.091.091.133.138 7.969 8.878 19.805 12.381 30.903 15.507l.051.014c42.101 11.267 86.296 11.666 129.522 14.51 46.905 3.085 95.408 6.276 139.718 13.265 3.674.579 7.469-1.928 8.407-5.522 1.104-4.231-1.774-8.616-6.089-9.296-44.964-7.094-96.014-10.452-141.053-13.415-40.441-2.66-78.639-5.173-106.876-9.909-9.69-1.625-19.369-3.608-28.647-6.898-6.409-2.273-14.302-5.102-16.864-12.08-8.363-22.769-2.117-44.896 18.564-65.768 11.426-11.531 24.382-19.602 31.17-23.428.03.025.902.736 1.325 1.061 6.129 4.717 13.435 7.628 20.729 10.011 6.684 2.19 13.526 3.897 20.395 5.389a7.499 7.499 0 0 0 8.921-5.737c.866-3.984-1.755-8.057-5.737-8.922-.801-.174-1.584-.348-2.353-.522-8.486-1.918-16.93-4.171-24.925-7.647-3.967-1.757-6.656-3.42-8.462-4.914 18.531-57.555 99.046-87.546 123.79-95.519 7.975 20.158 35.218 31.332 63.86 43.08 31.07 12.743 66.285 27.185 76.609 53.737 5.41 13.914 4.008 30.436-4.305 50.36-63.124-20.019-129.955-23.286-195.03-33.316a7.501 7.501 0 0 0-8.555 6.271c-.624 4.044 2.234 7.934 6.271 8.555 40.195 6.186 80.705 10.123 120.84 16.722 26.356 4.334 52.795 9.484 78.108 18.171.028.01.058.012.086.022 28.1 9.622 49.772 22.435 58.564 40.302 7.354 14.943 5.369 32.841-6.088 54.571a240.057 240.057 0 0 0-17.297-6.11c-10.856-3.387-21.97-6.34-33.126-8.571-4.061-.867-8.188 1.599-9.07 5.733-.879 4.123 2.006 8.094 6.025 8.955 3.007.643 6.022 1.286 9.006 2.032 21.415 5.08 43.131 11.656 62.024 23.226 22.09 13.526 24.782 36.572 20.377 52.198zM121.083 116.296c6.097-12.178 4.261-20.829 1.354-26.161-7.441-13.646-28.352-15.939-39.11-5.034a20.683 20.683 0 0 0-4.587 7.084c-12.43.247-23.779 11.405-24.401 24.112-.33 6.729 2.441 12.954 7.802 17.525 5.207 4.441 12.717 7.255 22.325 8.381 3.6 7.879 11.544 13.357 20.772 13.357 12.611 0 22.832-10.223 22.832-22.832 0-6.454-2.682-12.279-6.987-16.432zm-37.716 9.866l-.438.664c-8.829-1.601-13.838-5.139-13.61-9.794.239-4.883 5.205-9.859 9.839-9.859 2.861 0 5.222 2.095 6.846 4.251.726.964 1.354 1.997 1.923 3.061.367.689.717 1.435 1.057 2.21a22.823 22.823 0 0 0-5.617 9.467zm24.065-16.159a22.751 22.751 0 0 0-2.195-.108c-.942 0-1.869.064-2.782.175-2.828-6.199-6.21-10.225-9.437-12.832l-.095-.08a5.726 5.726 0 0 1 1.082-1.524c3.802-3.852 12.562-3.27 15.262 1.682 1.573 2.883.88 7.396-1.835 12.687z"></path>
  </symbol>
  <symbol xmlns="http://www.w3.org/2000/svg" viewBox="0 0 480.007 480.007" id="stethoscope">
    <path d="M479.426 267.581c-3.547-24.574-22.852-43.879-47.426-47.426v-14.544c0-40.128-30.504-72.8-68-72.8-36.416 0-66.904 31.68-68 70.624h.464l-.464.08v157.656c0 50.4-37.68 91.328-84 91.328s-84-40.984-84-91.328v-13.656c11.6 0 24-8.408 24-32v-20.12c51.344-13.128 88-57.216 88-107.2v-16.68h-16l-.336-104.12c-.116-19.273-13.946-35.729-32.912-39.16-4.091-12.533-17.568-19.377-30.102-15.285-12.533 4.091-19.377 17.568-15.285 30.102 4.091 12.533 17.568 19.377 30.102 15.285a23.873 23.873 0 0 0 14.741-13.79 24 24 0 0 1 17.432 22.896l.36 104.072h-16v16.912c-.638 27.827-19.294 52.009-46.048 59.688a72.744 72.744 0 0 1-44 0C75.229 240.41 56.615 216.232 56 188.427v-16.912H32v-104a24 24 0 0 1 17.76-23.072c4.869 12.395 18.864 18.495 31.259 13.626S99.514 39.204 94.645 26.81 75.78 8.315 63.386 13.184a24.114 24.114 0 0 0-14.122 15.011C30.091 31.471 16.053 48.064 16 67.515v104H0v16.64c0 50.04 36.68 94.144 88 107.24v20.12c0 23.592 12.4 32 24 32v13.656c0 59.2 44.856 107.328 100 107.328s100-48.184 100-107.328V203.899c.8-30.36 24.144-55.064 52-55.064 28.672 0 52 25.472 52 56.8v14.52c-30.611 4.418-51.844 32.815-47.426 63.426s32.815 51.844 63.426 47.426 51.844-32.816 47.426-63.426zM168 43.515a8 8 0 1 1 0-16 8 8 0 0 1 0 16zm-96-16a8 8 0 1 1 0 16 8 8 0 0 1 0-16zm-56 160.64v-.64h24v.912c.6 34.771 23.733 65.116 57.104 74.904a89.02 89.02 0 0 0 53.744 0c33.387-9.775 56.541-40.121 57.152-74.904v-.912h16v.64c0 44.504-34.304 83.664-81.6 93.136a114.119 114.119 0 0 1-33.752 1.656 104.5 104.5 0 0 1-11.048-1.672c-47.296-9.456-81.6-48.616-81.6-93.12zm96 143.36c-7.2 0-8-11.2-8-16v-16.976c.64.08 1.296.112 1.944.176.8.088 1.6.152 2.4.224 3.784.336 7.6.56 11.448.568h.4c3.84 0 7.648-.232 11.408-.568.8-.072 1.648-.136 2.472-.224.632-.072 1.288-.096 1.92-.176v16.976c0 4.8-.8 16-8 16H112zm312-16c-22.091 0-40-17.909-40-40s17.909-40 40-40 40 17.909 40 40c-.026 22.081-17.92 39.974-40 40z"></path>
    <path d="M424 251.515c-13.255 0-24 10.745-24 24s10.745 24 24 24 24-10.745 24-24-10.745-24-24-24zm0 32a8 8 0 1 1 0-16 8 8 0 0 1 0 16z"></path>
  </symbol>
  <symbol viewBox="1 -1 512 511" xmlns="http://www.w3.org/2000/svg" id="notes">
    <path d="M7.523 421.367a7.521 7.521 0 0 0 7.52-7.523V90.359c0-6.914 5.625-12.539 12.535-12.539h161.227a7.521 7.521 0 1 0 0-15.043H27.582C12.372 62.777 0 75.152 0 90.36v323.485a7.524 7.524 0 0 0 7.523 7.523zm496.43-377.195l-35.605-35.61C463.152 3.364 456.238.5 448.887.5c-7.352 0-14.262 2.863-19.461 8.063L312.449 125.55V90.359c0-15.207-12.37-27.582-27.578-27.582h-61.066c-4.157 0-7.524 3.368-7.524 7.524s3.367 7.523 7.524 7.523h61.066c6.91 0 12.535 5.621 12.535 12.54v50.234l-85.844 85.851-20.324 20.324a17.454 17.454 0 0 0-5.12 11.832l-1.837 57.774a11.57 11.57 0 0 0 3.367 8.512 11.568 11.568 0 0 0 8.153 3.375c.12 0 .242 0 .36-.004l11.32-.36a7.527 7.527 0 0 0 7.28-7.757 7.514 7.514 0 0 0-7.757-7.278l-7.566.238 1.714-54.02a2.47 2.47 0 0 1 .727-1.675l15.004-15.004 53.246 53.25-15.004 15.008a2.472 2.472 0 0 1-1.672.723l-11.453.367a7.522 7.522 0 0 0-7.281 7.758c.133 4.148 3.582 7.394 7.758 7.277l11.453-.363a17.457 17.457 0 0 0 11.836-5.125l20.32-20.324 11.316-11.32v192.84c0 6.913-5.62 12.538-12.535 12.538H27.582c-6.914 0-12.535-5.625-12.535-12.539V448.84a7.524 7.524 0 0 0-15.047 0v33.656c0 15.207 12.371 27.582 27.582 27.582h257.285c15.211 0 27.582-12.375 27.582-27.582V274.61L429.551 157.5l41.094-41.102c.007-.003.011-.007.015-.011l33.293-33.297c10.73-10.73 10.73-28.188 0-38.918zM299.61 266.176l-18.843 18.844-53.246-53.254L360.344 98.93l53.246 53.25-113.973 113.984c-.004.004-.008.008-.008.012zm124.62-124.633l-53.25-53.254 30.461-30.46 53.246 53.25zm69.082-69.094l-27.988 27.992-53.246-53.25L440.066 19.2c2.356-2.355 5.489-3.652 8.82-3.652s6.466 1.297 8.821 3.652l35.606 35.61c4.863 4.863 4.863 12.777 0 17.64zm0 0"></path>
    <path d="M49.32 313.355a7.522 7.522 0 1 0 0 15.043h97.746a7.521 7.521 0 1 0 0-15.043zM255 145.023a7.522 7.522 0 0 0-7.523-7.523H49.32a7.522 7.522 0 1 0 0 15.043h198.157a7.521 7.521 0 0 0 7.523-7.52zm-55.812 45.575a7.521 7.521 0 0 0-7.524-7.52H49.32a7.521 7.521 0 1 0 0 15.043h142.344a7.522 7.522 0 0 0 7.524-7.523zm-27.426 45.578a7.522 7.522 0 0 0-7.524-7.524H49.32a7.522 7.522 0 1 0 0 15.043h114.918a7.521 7.521 0 0 0 7.524-7.52zm0 0"></path>
  </symbol>
  <symbol xmlns="http://www.w3.org/2000/svg" viewBox="0 0 472.97 472.97" id="thermometer">
    <path d="M264.97 156.688L157.658 264l51.312 51.312L316.282 208l-51.312-51.312zM180.282 264l84.688-84.688L293.658 208l-84.688 84.688L180.282 264z"></path>
    <path d="M454.057 18.911A64.569 64.569 0 0 0 408.402 0a64.15 64.15 0 0 0-45.656 18.912L320.97 60.688 79.114 302.544A75.112 75.112 0 0 0 56.97 356a59.196 59.196 0 0 1-17.456 42.144l-32.2 32.2c-9.751 9.751-9.751 25.561 0 35.312 9.751 9.751 25.561 9.751 35.312 0l32.2-32.2A59.196 59.196 0 0 1 116.97 416a75.064 75.064 0 0 0 53.456-22.144L400.97 163.312l53.088-53.088c25.215-25.215 25.215-66.098-.001-91.313zM31.314 454.344a9.184 9.184 0 0 1-12.688 0 8.991 8.991 0 0 1 0-12.688l22.344-22.344L53.658 432l-22.344 22.344zm127.8-71.8A59.2 59.2 0 0 1 116.97 400a74.987 74.987 0 0 0-51.928 20.76l-12.8-12.8A75.043 75.043 0 0 0 72.97 356a59.2 59.2 0 0 1 17.456-42.144L320.97 83.312 389.658 152 159.114 382.544zM442.746 98.912l-41.776 41.776L332.282 72l41.776-41.776c18.968-18.968 49.72-18.968 68.688 0 18.968 18.968 18.968 49.721 0 68.688z"></path>
    <path d="M203.312 258.344l24.002-24.002 11.314 11.314-24.002 24.001zm39.999-40.023l15.998-15.997 11.313 11.314-15.997 15.997zm94.629-83.297c-9.372-9.371-24.566-9.371-33.938 0-9.373 9.372-9.375 24.568-.003 33.941l.003.003c9.373 9.372 24.569 9.37 33.941-.003 9.372-9.373 9.371-24.569-.003-33.941zm-11.314 22.632a8 8 0 1 1 2.344-5.657 7.931 7.931 0 0 1-2.344 5.657z"></path>
  </symbol>
  <symbol xmlns="http://www.w3.org/2000/svg" viewBox="0 0 512 512" id="note">
    <path fill="none" d="M402.5 74.74a8.24 8.24 0 0 0-8.24-8.24H117.74a8.24 8.24 0 0 0-8.24 8.24v362.52a8.24 8.24 0 0 0 8.24 8.24h276.52a8.24 8.24 0 0 0 8.24-8.24V74.74z"/><path d="M418.5 75.219c0-13.652-11.067-24.72-24.721-24.72H118.221c-13.653 0-24.721 11.067-24.721 24.72V437.78c0 13.652 11.068 24.72 24.721 24.72H393.78c13.653 0 24.721-11.067 24.721-24.72V75.219zm-16 362.041a8.239 8.239 0 0 1-8.24 8.239H117.74a8.239 8.239 0 0 1-8.24-8.239V74.739a8.24 8.24 0 0 1 8.24-8.239h276.52a8.24 8.24 0 0 1 8.24 8.239V437.26z"/><path d="M134.5 248.5h247v16h-247zM134.5 207.5h247v16h-247zM134.5 289.5h247v16h-247zM134.5 330.5h247v17h-247zM134.5 371.5h247v17h-247z"/><circle cx="153" cy="109.74" r="12.36"/><circle cx="194.2" cy="109.74" r="12.36"/><path d="M383.72 109.74c0 6.826-5.536 12.36-12.359 12.36-6.824 0-12.36-5.534-12.36-12.36s5.536-12.36 12.36-12.36c6.823 0 12.359 5.534 12.359 12.36zM342.52 109.74c0 6.826-5.536 12.36-12.359 12.36-6.824 0-12.36-5.534-12.36-12.36s5.536-12.36 12.36-12.36c6.823 0 12.359 5.534 12.359 12.36z"/>
  </symbol>
</svg>