<svg height="511pt" viewBox="1 -1 511.99988 511" width="511pt" xmlns="http://www.w3.org/2000/svg"><path d="m7.523438 421.367188c4.152343 0 7.519531-3.367188 7.519531-7.523438v-323.484375c0-6.914063 5.625-12.539063 12.535156-12.539063h161.226563c4.15625 0 7.523437-3.367187 7.523437-7.519531 0-4.15625-3.367187-7.523437-7.523437-7.523437h-161.222657c-15.210937 0-27.582031 12.375-27.582031 27.582031v323.484375c0 4.152344 3.367188 7.523438 7.523438 7.523438zm0 0"/><path d="m503.953125 44.171875-35.605469-35.609375c-5.195312-5.199219-12.109375-8.0625-19.460937-8.0625-7.351563 0-14.261719 2.863281-19.460938 8.0625l-116.976562 116.988281v-35.191406c0-15.207031-12.371094-27.582031-27.578125-27.582031h-61.066406c-4.15625 0-7.523438 3.367187-7.523438 7.523437s3.367188 7.523438 7.523438 7.523438h61.066406c6.910156 0 12.535156 5.621093 12.535156 12.539062v50.234375l-85.84375 85.851563-20.324219 20.324219c-3.160156 3.160156-4.980469 7.363281-5.121093 11.832031l-1.835938 57.773437c-.101562 3.167969 1.128906 6.269532 3.367188 8.511719 2.15625 2.15625 5.109374 3.375 8.152343 3.375.121094 0 .242188 0 .359375-.003906l11.320313-.359375c4.152343-.132813 7.410156-3.605469 7.28125-7.757813-.136719-4.152343-3.574219-7.394531-7.757813-7.277343l-7.566406.238281 1.714844-54.019531c.019531-.632813.277344-1.226563.726562-1.675782l15.003906-15.003906 53.246094 53.25-15.003906 15.007812c-.445312.445313-1.042969.703126-1.671875.722657l-11.453125.367187c-4.152344.128906-7.414062 3.605469-7.28125 7.757813.132812 4.148437 3.582031 7.394531 7.757812 7.277343l11.453126-.363281c4.46875-.140625 8.671874-1.960937 11.835937-5.125l20.320313-20.324219 11.316406-11.320312v192.839844c0 6.914062-5.621094 12.539062-12.535156 12.539062h-257.285157c-6.914062 0-12.535156-5.625-12.535156-12.539062v-33.65625c0-4.152344-3.371094-7.523438-7.523437-7.523438-4.15625 0-7.523438 3.371094-7.523438 7.523438v33.65625c0 15.207031 12.371094 27.582031 27.582031 27.582031h257.285157c15.210937 0 27.582031-12.375 27.582031-27.582031v-207.886719l117.101562-117.109375 41.09375-41.101562c.007813-.003907.011719-.007813.015625-.011719l33.292969-33.296875c10.730469-10.730469 10.730469-28.1875 0-38.917969zm-204.34375 222.003906-18.84375 18.84375-53.246094-53.253906 132.824219-132.835937 53.246094 53.25-113.972656 113.984374c-.003907.003907-.007813.007813-.007813.011719zm124.621094-124.632812-53.25-53.253907 30.460937-30.460937 53.246094 53.25zm69.082031-69.09375-27.988281 27.992187-53.246094-53.25 27.988281-27.992187c2.355469-2.355469 5.488282-3.652344 8.820313-3.652344s6.464843 1.296875 8.820312 3.652344l35.605469 35.609375c4.863281 4.863281 4.863281 12.777344 0 17.640625zm0 0"/><path d="m49.320312 313.355469c-4.15625 0-7.523437 3.367187-7.523437 7.523437 0 4.152344 3.367187 7.519532 7.523437 7.519532h97.746094c4.15625 0 7.523438-3.367188 7.523438-7.519532 0-4.15625-3.367188-7.523437-7.523438-7.523437zm0 0"/><path d="m255 145.023438c0-4.15625-3.367188-7.523438-7.523438-7.523438h-198.15625c-4.15625 0-7.523437 3.367188-7.523437 7.523438 0 4.152343 3.367187 7.519531 7.523437 7.519531h198.15625c4.15625 0 7.523438-3.367188 7.523438-7.519531zm0 0"/><path d="m199.1875 190.597656c0-4.152344-3.367188-7.519531-7.523438-7.519531h-142.34375c-4.15625 0-7.523437 3.367187-7.523437 7.519531 0 4.15625 3.367187 7.523438 7.523437 7.523438h142.34375c4.15625 0 7.523438-3.367188 7.523438-7.523438zm0 0"/><path d="m171.761719 236.175781c0-4.15625-3.367188-7.523437-7.523438-7.523437h-114.917969c-4.15625 0-7.523437 3.367187-7.523437 7.523437 0 4.152344 3.367187 7.519531 7.523437 7.519531h114.917969c4.15625 0 7.523438-3.367187 7.523438-7.519531zm0 0"/></svg>