<?xml version="1.0" encoding="iso-8859-1"?>
<!-- Generator: Adobe Illustrator 19.0.0, SVG Export Plug-In . SVG Version: 6.00 Build 0)  -->
<svg version="1.1" id="Capa_1" xmlns="http://www.w3.org/2000/svg" xmlns:xlink="http://www.w3.org/1999/xlink" x="0px" y="0px"
	 viewBox="0 0 472.97 472.97" style="enable-background:new 0 0 472.97 472.97;" xml:space="preserve">
<g>
	<g>
		<path d="M264.97,156.688L157.658,264l51.312,51.312L316.282,208L264.97,156.688z M180.282,264l84.688-84.688L293.658,208
			l-84.688,84.688L180.282,264z"/>
	</g>
</g>
<g>
	<g>
		<path d="M454.057,18.911C441.948,6.803,425.526,0,408.402,0c-17.134-0.046-33.573,6.764-45.656,18.912L320.97,60.688
			L79.114,302.544C64.89,316.691,56.917,335.939,56.97,356c0.045,15.816-6.241,30.992-17.456,42.144l-32.2,32.2
			c-9.751,9.751-9.751,25.561,0,35.312c9.751,9.751,25.561,9.751,35.312,0l32.2-32.2c11.152-11.215,26.328-17.501,42.144-17.456
			c20.062,0.059,39.312-7.916,53.456-22.144L400.97,163.312l53.088-53.088C479.273,85.009,479.273,44.126,454.057,18.911z
			 M31.314,454.344c-3.55,3.391-9.138,3.391-12.688,0c-3.493-3.508-3.493-9.18,0-12.688l22.344-22.344L53.658,432L31.314,454.344z
			 M159.114,382.544c-11.152,11.215-26.328,17.5-42.144,17.456c-19.339-0.035-37.943,7.403-51.928,20.76l-12.8-12.8
			C65.59,393.959,73.016,375.344,72.97,356c-0.044-15.816,6.241-30.992,17.456-42.144L320.97,83.312L389.658,152L159.114,382.544z
			 M442.746,98.912l-41.776,41.776L332.282,72l41.776-41.776c18.968-18.968,49.72-18.968,68.688,0
			C461.714,49.192,461.714,79.945,442.746,98.912z"/>
	</g>
</g>
<g>
	<g>
		<rect x="204.001" y="244" transform="matrix(0.7071 -0.7071 0.7071 0.7071 -113.4694 230.0606)" width="33.944" height="16"/>
	</g>
</g>
<g>
	<g>
		<rect x="245.658" y="207.979" transform="matrix(0.7071 -0.7071 0.7071 0.7071 -77.4554 244.9642)" width="22.624" height="16"/>
	</g>
</g>
<g>
	<g>
		<path d="M337.94,135.024c-9.372-9.371-24.566-9.371-33.938,0c-9.373,9.372-9.375,24.568-0.003,33.941
			c0.001,0.001,0.002,0.002,0.003,0.003c9.373,9.372,24.569,9.37,33.941-0.003C347.315,159.592,347.314,144.396,337.94,135.024z
			 M326.626,157.656c-3.124,3.123-8.188,3.123-11.312,0c-3.125-3.124-3.125-8.189-0.002-11.314
			c3.124-3.125,8.189-3.125,11.314-0.002c1.501,1.501,2.344,3.537,2.344,5.659C328.977,154.123,328.133,156.161,326.626,157.656z"/>
	</g>
</g>
<g>
</g>
<g>
</g>
<g>
</g>
<g>
</g>
<g>
</g>
<g>
</g>
<g>
</g>
<g>
</g>
<g>
</g>
<g>
</g>
<g>
</g>
<g>
</g>
<g>
</g>
<g>
</g>
<g>
</g>
</svg>
